<svg width="89" height="13" viewBox="0 0 89 13" fill="none" xmlns="http://www.w3.org/2000/svg">
<path d="M5.31616 0.0839989C6.09616 0.0839989 6.81016 0.215999 7.45816 0.479999C8.10616 0.732 8.66416 1.11 9.13216 1.614C10.1162 2.67 10.6082 4.182 10.6082 6.15C10.6082 8.13 10.1162 9.66 9.13216 10.74C8.19616 11.748 6.91816 12.252 5.29816 12.252C3.69016 12.252 2.41816 11.736 1.48216 10.704C0.498156 9.636 0.00615629 8.118 0.00615629 6.15C0.00615629 4.158 0.498156 2.634 1.48216 1.578C2.40616 0.581999 3.68416 0.0839989 5.31616 0.0839989ZM8.41216 6.186C8.41216 4.842 8.13016 3.81 7.56616 3.09C7.01416 2.358 6.26416 1.992 5.31616 1.992C4.36816 1.992 3.61216 2.358 3.04816 3.09C2.48416 3.81 2.20216 4.842 2.20216 6.186C2.20216 7.518 2.48416 8.544 3.04816 9.264C3.61216 9.972 4.36816 10.326 5.31616 10.326C6.26416 10.326 7.01416 9.972 7.56616 9.264C8.13016 8.544 8.41216 7.518 8.41216 6.186ZM18.9353 10.416C18.3833 11.58 17.4953 12.162 16.2713 12.162C14.7233 12.162 13.7033 11.556 13.2113 10.344C13.0313 9.924 12.9413 9.414 12.9413 8.814V3.234H15.0653V8.598C15.0653 9.174 15.2033 9.606 15.4793 9.894C15.7553 10.17 16.0913 10.308 16.4873 10.308C16.8953 10.308 17.2373 10.254 17.5133 10.146C17.7893 10.026 18.0293 9.852 18.2333 9.624C18.6773 9.108 18.9113 8.418 18.9353 7.554V3.234H21.0593V12H18.9353V10.416ZM26.5304 4.98C27.0584 3.72 27.8504 3.09 28.9064 3.09C29.1104 3.09 29.3684 3.132 29.6804 3.216L29.6444 5.34C29.3084 5.268 28.9784 5.232 28.6544 5.232C27.2384 5.232 26.5304 6.21 26.5304 8.166V12H24.4064V3.234H26.5304V4.98ZM33.0827 9.336C33.1067 10.164 33.7127 10.578 34.9007 10.578C35.3567 10.578 35.7287 10.482 36.0167 10.29C36.3167 10.086 36.4667 9.852 36.4667 9.588C36.4667 9.324 36.3767 9.12 36.1967 8.976C36.0167 8.832 35.7347 8.7 35.3507 8.58L33.4427 7.896C32.0267 7.404 31.3187 6.6 31.3187 5.484C31.3187 4.74 31.6487 4.146 32.3087 3.702C32.9807 3.246 33.8747 3.018 34.9907 3.018C36.1187 3.018 36.9827 3.264 37.5827 3.756C38.1947 4.248 38.5127 4.866 38.5367 5.61H36.5387C36.5147 5.322 36.3767 5.094 36.1247 4.926C35.8727 4.758 35.5127 4.674 35.0447 4.674C34.5767 4.674 34.2107 4.77 33.9467 4.962C33.6947 5.142 33.5687 5.352 33.5687 5.592C33.5687 6.012 33.9227 6.324 34.6307 6.528L36.7007 7.302C37.3847 7.53 37.9067 7.824 38.2667 8.184C38.6387 8.532 38.8247 8.988 38.8247 9.552C38.8247 10.272 38.4827 10.896 37.7987 11.424C37.0907 11.976 36.1547 12.252 34.9907 12.252C33.8267 12.252 32.8907 12 32.1827 11.496C31.4747 10.98 31.1147 10.26 31.1027 9.336H33.0827ZM44.3736 0.317999H53.7336V2.154H50.1156V12H47.9916V2.154H44.3736V0.317999ZM60.1276 4.296C60.4276 4.68 60.6496 5.124 60.7936 5.628C60.9496 6.132 61.0276 6.594 61.0276 7.014C61.0276 7.434 61.0036 7.812 60.9556 8.148H55.3036C55.3276 8.856 55.5016 9.432 55.8256 9.876C56.1496 10.32 56.6416 10.542 57.3016 10.542C58.1776 10.542 58.6996 10.158 58.8676 9.39H61.0096C60.8656 10.266 60.4636 10.956 59.8036 11.46C59.1196 11.988 58.2856 12.252 57.3016 12.252C56.1496 12.252 55.1836 11.832 54.4036 10.992C53.5996 10.116 53.1976 8.994 53.1976 7.626C53.1976 6.222 53.5996 5.094 54.4036 4.242C55.1716 3.426 56.1376 3.018 57.3016 3.018C58.5136 3.018 59.4556 3.444 60.1276 4.296ZM57.3196 4.71C56.7196 4.71 56.2516 4.908 55.9156 5.304C55.5796 5.688 55.3816 6.186 55.3216 6.798H59.0476C59.0476 5.85 58.7476 5.214 58.1476 4.89C57.9196 4.77 57.6436 4.71 57.3196 4.71ZM66.4505 6.888C67.1465 6.888 67.9505 7.002 68.8625 7.23V6.366C68.8625 5.754 68.7365 5.304 68.4845 5.016C68.2445 4.716 67.8425 4.566 67.2785 4.566C66.7265 4.566 66.3005 4.68 66.0005 4.908C65.7005 5.124 65.5505 5.436 65.5505 5.844H63.2285C63.2285 4.848 63.5765 4.128 64.2725 3.684C64.9805 3.24 65.9645 3.018 67.2245 3.018C69.0245 3.018 70.1885 3.648 70.7165 4.908C70.8965 5.34 70.9865 5.85 70.9865 6.438V12H69.1325L68.9705 10.83C68.4065 11.778 67.5425 12.252 66.3785 12.252C65.2505 12.252 64.3745 11.976 63.7505 11.424C63.1745 10.896 62.8865 10.23 62.8865 9.426C62.8865 8.61 63.2045 7.986 63.8405 7.554C64.4765 7.11 65.3465 6.888 66.4505 6.888ZM68.8625 8.58C68.1545 8.388 67.4945 8.292 66.8825 8.292C65.7305 8.292 65.1545 8.676 65.1545 9.444C65.1545 9.768 65.2865 10.05 65.5505 10.29C65.8145 10.518 66.2345 10.632 66.8105 10.632C67.3985 10.632 67.8785 10.44 68.2505 10.056C68.6345 9.66 68.8385 9.168 68.8625 8.58ZM81.8582 4.908C82.4222 3.648 83.4122 3.018 84.8282 3.018C85.8722 3.018 86.6822 3.372 87.2582 4.08C87.8102 4.752 88.0862 5.688 88.0862 6.888V12H85.9442V6.888C85.9442 6.24 85.7882 5.754 85.4762 5.43C85.1642 5.094 84.7262 4.926 84.1622 4.926C83.5982 4.926 83.1362 5.172 82.7762 5.664C82.4162 6.156 82.2242 6.9 82.2002 7.896V12H80.0762V6.888C80.0762 6.24 79.9202 5.754 79.6082 5.43C79.2962 5.094 78.8582 4.926 78.2942 4.926C77.7302 4.926 77.2442 5.178 76.8362 5.682C76.4402 6.186 76.2302 6.942 76.2062 7.95V12H74.0822V3.252H75.9362L76.1702 4.764C76.7462 3.6 77.6702 3.018 78.9422 3.018C79.6742 3.018 80.2802 3.186 80.7602 3.522C81.2522 3.858 81.6182 4.32 81.8582 4.908Z" fill="#212121"/>
</svg>
